<?xml version="1.0" standalone="no"?><!DOCTYPE svg PUBLIC "-//W3C//DTD SVG 1.1//EN" "http://www.w3.org/Graphics/SVG/1.1/DTD/svg11.dtd">
<svg t="1697978324413" class="icon" viewBox="0 0 1024 1024" version="1.1" xmlns="http://www.w3.org/2000/svg"
     p-id="13786"
     width="128" height="128"><path d="M640 85.333333H256c-70.613333 0-128 57.386667-128 128v597.333334c0 70.613333 57.386667 128 128 128h313.173333A234.325333 234.325333 0 0 1 469.333333 746.666667c0-129.706667 104.96-234.666667 234.666667-234.666667 22.186667 0 43.733333 2.986667 64 8.96V213.333333c0-70.613333-57.386667-128-128-128zM408.896 448h-170.666667a32 32 0 1 1 0-64h170.666667a32 32 0 1 1 0 64z m256-138.666667h-426.666667a32 32 0 1 1 0-64h426.666667a32 32 0 1 1 0 64z" fill="#0367FD" p-id="13787"></path><path d="M768 565.76a187.733333 187.733333 0 0 0-64-11.093333 192 192 0 0 0-192 192c0 93.866667 67.413333 172.16 156.586667 188.8 11.52 2.133333 23.253333 3.2 35.413333 3.2a192 192 0 0 0 192-192c0-83.626667-53.333333-154.666667-128-180.906667z m21.333333 234.24h-85.333333a32 32 0 0 1-32-32v-85.333333a32 32 0 1 1 64 0v53.333333H789.333333a32 32 0 1 1 0 64z" fill="#0367FD" p-id="13788"></path></svg>