<?xml version="1.0" standalone="no"?><!DOCTYPE svg PUBLIC "-//W3C//DTD SVG 1.1//EN" "http://www.w3.org/Graphics/SVG/1.1/DTD/svg11.dtd">
<svg t="1713078993215" class="icon" viewBox="0 0 1024 1024" version="1.1" xmlns="http://www.w3.org/2000/svg" p-id="8512"
     width="128" height="128"><path d="M466.099 253.044c-35.693 0-101.479 22.506-104.68 25.839-3.81 3.968-3.955 7.799-2.732 11.958 2.036 6.922 14.443 22.524 28.135 36.217 26.277 26.271 56.862 55.841 77.961 79.709-18.833 18.248-37.667 38.829-56.499 55.622-24.409-23.705-52.919-53.796-77.96-78.835-9.083-9.08-18.066-19.616-26.278-24.526-8.476-5.068-15.082-5.253-22.774 0-13.542 9.247-29.854 83.557-24.965 126.571 4.36 38.383 19.813 78.024 52.556 114.744 33.514 37.584 75.1 56.582 113.875 63.942 39.124 7.429 75.585 4.737 115.19-9.198 22.179 22.38 43.158 42.283 65.256 64.379 20.814 20.819 39.973 45.025 64.384 53.87 34.2 12.392 86.396 0.841 106.428-45.983 5.486-12.83 7.605-28.62 6.132-42.922-1.124-10.92-5.347-27.403-14.76-38.965-0.008-0.011-0.015-0.02-0.019-0.032-4.814-7.026-32.713-34.002-32.713-34.002l0 0.002c-10.443-10.373-21.781-20.8-33.095-32.116-8.753-8.749-19.299-19.292-29.783-29.777-10.241-10.243-20.329-23.884-30.223-28.47-17.704-8.202-37.064 12.888-29.342 29.343 4.732 10.089 18.208 19.96 28.467 30.22 20.273 20.27 41.557 40.676 61.319 60.438 0.996 0.996 1.979 2.001 2.953 3.006l0 0c0 0 0.011 0.011 0.025 0.028 3.469 3.576 6.798 7.16 10.12 10.496 8.885 9.39 20.663 22.326 22.537 26.849 0.036 0.101 0.074 0.196 0.112 0.296 0.009 0.023 0.018 0.049 0.025 0.072 0 0 0 0 0 0.003 0.049 0.138 0.099 0.28 0.141 0.419 10.656 34.36-29.825 65.861-60.442 47.301-6.538-3.964-10.709-10.707-17.08-17.082-34.983-34.981-78.351-76.538-111.686-110.803-57.413 31.196-122.274 34.452-180.007-6.57-34.304-24.37-52.41-57.41-61.756-87.151-9.576-30.478-9.99-61.363-1.753-89.345l72.706 72.7c8.425 8.425 15.305 18.635 23.649 22.774 15.888 7.878 28.102-7.952 44.675-24.524l25.403-25.404c12.561-12.558 43.205-37.73 47.74-51.24 4.639-13.822-8.173-24.819-21.461-38.104-25.959-25.958-49.749-49.941-73.58-74.454 46.786-10.719 99.245-5.923 146.285 33.285 44.725 37.279 60.227 88.231 59.128 127.446-0.164 5.779-2.076 11.884 0 17.52 7.716 16.58 29.199 20.93 40.29 4.381 3.904-5.822 3.068-18.053 3.068-25.839 0-43.62-14.579-89.058-49.052-130.514C575.253 270.386 515.163 253.044 466.099 253.044L466.099 253.044zM466.099 253.044" fill="#42B49A" p-id="8513"></path><path d="M354.311 63.826l0 0.02C205.294 65.251 83.342 196.841 80.361 345.234L79.55 345.234l-1.632 599.965 600.709 1.627 0.043-0.077c148.091-2.6 274.583-124.265 277.534-271.866l0.222 0 1.656-609.415L354.311 63.826 354.311 63.826zM840.602 674.565c-2.648 88.769-70.547 153.885-159.334 156.64L192.1 830.868l2.342-483.569 0 0c1.881-91.019 67.967-168.034 159.552-168.277l488.72 0.316-2.346 495.228L840.602 674.566 840.602 674.565zM840.602 674.565" fill="#42B49A" p-id="8514"></path></svg>