<?xml version="1.0" standalone="no"?><!DOCTYPE svg PUBLIC "-//W3C//DTD SVG 1.1//EN" "http://www.w3.org/Graphics/SVG/1.1/DTD/svg11.dtd"><svg height="181" node-id="1" sillyvg="true" template-height="181" template-width="185" version="1.1" viewBox="0 0 185 181" width="185" xmlns="http://www.w3.org/2000/svg" xmlns:xlink="http://www.w3.org/1999/xlink"><defs node-id="12"></defs><g node-id="14"><g node-id="15"><path d="M 169.57 92.89 L 169.81 89.50 L 170.48 86.32 L 171.57 83.31 L 173.05 80.48 L 174.86 77.91 L 177.00 75.59 L 179.42 73.56 L 182.08 71.88 L 185.00 70.53 L 182.75 63.02 L 179.56 54.19 L 175.96 45.58 L 174.10 41.69 L 172.48 38.71 L 168.05 40.67 L 163.79 42.40 L 160.92 43.34 L 158.21 43.93 L 155.66 44.18 L 153.15 44.00 L 150.77 43.25 L 148.48 41.91 L 146.25 39.35 L 144.48 36.63 L 143.12 33.73 L 142.16 30.68 L 141.62 27.59 L 141.49 24.43 L 141.78 21.28 L 142.47 18.21 L 143.57 15.19 L 137.98 12.14 L 132.17 9.49 L 126.14 7.24 L 119.86 5.39 L 118.51 8.31 L 116.82 10.97 L 114.79 13.39 L 112.47 15.53 L 109.90 17.34 L 107.07 18.82 L 104.06 19.91 L 100.89 20.58 L 97.50 20.82 L 94.92 20.59 L 92.06 19.95 L 88.86 18.83 L 84.22 16.63 L 79.57 13.79 L 75.23 10.50 L 71.55 7.05 L 69.38 4.53 L 67.80 2.19 L 66.72 0.00 L 59.36 2.06 L 56.20 3.18 L 53.15 4.47 L 50.09 5.99 L 46.54 8.00 L 47.92 11.56 L 49.22 16.00 L 50.17 20.68 L 50.73 25.56 L 50.81 28.84 L 50.62 31.91 L 50.14 34.81 L 49.30 37.58 L 48.10 39.93 L 46.54 41.91 L 43.98 44.14 L 41.26 45.91 L 38.36 47.27 L 35.31 48.23 L 32.22 48.77 L 29.06 48.90 L 25.91 48.62 L 22.84 47.94 L 19.82 46.84 L 16.76 52.42 L 14.10 58.22 L 11.85 64.25 L 10.00 70.53 L 12.92 71.88 L 15.58 73.57 L 18.00 75.60 L 20.14 77.92 L 21.95 80.49 L 23.43 83.32 L 24.52 86.33 L 25.19 89.50 L 25.43 92.89 L 25.16 95.40 L 24.44 97.87 L 23.23 100.32 L 21.70 102.60 L 19.87 104.81 L 17.72 106.93 L 14.23 109.80 L 10.53 112.28 L 6.71 114.38 L 3.26 115.89 L 5.51 123.72 L 6.80 127.32 L 8.26 130.81 L 9.94 134.26 L 11.97 137.89 L 14.27 137.07 L 16.96 136.48 L 20.08 136.15 L 24.83 136.14 L 29.85 136.69 L 34.78 137.77 L 39.32 139.32 L 42.17 140.69 L 44.55 142.20 L 46.52 143.87 L 48.05 145.79 L 48.90 147.60 L 49.19 149.37 L 49.05 151.20 L 48.57 153.10 L 47.71 155.09 L 46.08 158.01 L 44.14 161.11 L 42.20 164.26 L 40.53 167.51 L 43.59 169.13 L 47.84 171.05 L 57.41 174.77 L 67.20 178.08 L 75.14 180.39 L 76.49 177.47 L 78.18 174.81 L 80.21 172.39 L 82.53 170.25 L 85.10 168.44 L 87.93 166.96 L 90.94 165.87 L 94.11 165.20 L 97.50 164.96 L 100.02 165.11 L 101.99 165.51 L 103.52 166.11 L 104.92 166.97 L 106.09 168.03 L 107.05 169.30 L 108.24 171.49 L 109.31 174.18 L 111.52 180.39 L 119.06 178.56 L 127.96 176.31 L 132.49 175.01 L 136.65 173.64 L 140.56 172.10 L 143.55 170.59 L 142.45 167.56 L 141.76 164.49 L 141.47 161.34 L 141.60 158.18 L 142.14 155.09 L 143.10 152.04 L 144.46 149.15 L 146.23 146.43 L 148.46 143.87 L 151.02 141.64 L 153.74 139.87 L 156.64 138.51 L 159.69 137.55 L 162.78 137.01 L 165.94 136.88 L 169.09 137.16 L 172.16 137.84 L 175.18 138.94 L 178.24 133.36 L 180.90 127.56 L 183.15 121.53 L 185.00 115.25 L 182.08 113.90 L 179.42 112.22 L 177.00 110.19 L 174.86 107.87 L 173.05 105.30 L 171.57 102.47 L 170.48 99.46 L 169.81 96.28 L 169.57 92.89 Z M 97.50 116.91 L 94.20 116.68 L 91.10 116.05 L 88.15 115.02 L 85.36 113.62 L 82.83 111.91 L 80.52 109.88 L 78.48 107.57 L 76.77 105.03 L 75.37 102.24 L 74.34 99.29 L 73.71 96.19 L 73.48 92.89 L 73.71 89.59 L 74.34 86.49 L 75.37 83.54 L 76.77 80.75 L 78.48 78.22 L 80.52 75.91 L 82.82 73.87 L 85.36 72.16 L 88.15 70.76 L 91.10 69.73 L 94.20 69.10 L 97.50 68.87 L 100.80 69.10 L 103.90 69.73 L 106.85 70.76 L 109.64 72.16 L 112.17 73.87 L 114.48 75.91 L 116.52 78.22 L 118.23 80.75 L 119.63 83.54 L 120.66 86.49 L 121.29 89.59 L 121.52 92.89 L 121.29 96.19 L 120.66 99.29 L 119.63 102.24 L 118.23 105.03 L 116.52 107.57 L 114.48 109.88 L 112.18 111.91 L 109.64 113.62 L 106.85 115.02 L 103.90 116.05 L 100.80 116.68 L 97.50 116.91 Z" fill="#3c42ff" fill-rule="nonzero" group-id="1,2" id="形状" node-id="9" stroke="none" target-height="180.39014" target-width="181.73584" target-x="3.2641602" target-y="0"></path><path d="M 159.57 87.89 L 159.81 84.50 L 160.48 81.32 L 161.57 78.31 L 163.05 75.48 L 164.86 72.91 L 167.00 70.59 L 169.42 68.56 L 172.08 66.88 L 175.00 65.53 L 173.15 59.25 L 170.90 53.22 L 168.25 47.42 L 165.20 41.84 L 162.17 42.94 L 159.10 43.63 L 155.95 43.91 L 152.79 43.78 L 149.70 43.24 L 146.65 42.28 L 143.76 40.92 L 141.04 39.14 L 138.48 36.91 L 136.25 34.35 L 134.48 31.63 L 133.12 28.73 L 132.16 25.68 L 131.62 22.59 L 131.49 19.43 L 131.78 16.28 L 132.47 13.21 L 133.57 10.19 L 127.98 7.14 L 122.17 4.49 L 116.14 2.24 L 109.86 0.39 L 108.51 3.31 L 106.82 5.97 L 104.79 8.39 L 102.47 10.53 L 99.90 12.34 L 97.07 13.82 L 94.06 14.91 L 90.89 15.58 L 87.50 15.82 L 84.11 15.58 L 80.93 14.91 L 77.92 13.82 L 75.09 12.34 L 72.52 10.53 L 70.20 8.39 L 68.17 5.97 L 66.49 3.31 L 65.14 0.39 L 58.86 2.24 L 52.83 4.49 L 47.03 7.14 L 41.45 10.19 L 42.55 13.22 L 43.24 16.29 L 43.53 19.44 L 43.40 22.60 L 42.86 25.69 L 41.90 28.74 L 40.54 31.63 L 38.77 34.35 L 36.54 36.91 L 33.98 39.14 L 31.26 40.91 L 28.36 42.27 L 25.31 43.23 L 22.22 43.77 L 19.06 43.90 L 15.91 43.62 L 12.84 42.94 L 9.82 41.84 L 6.76 47.42 L 4.10 53.22 L 1.85 59.25 L 0.00 65.53 L 2.92 66.88 L 5.58 68.57 L 8.00 70.60 L 10.14 72.92 L 11.95 75.49 L 13.43 78.32 L 14.52 81.33 L 15.19 84.50 L 15.43 87.89 L 15.19 91.28 L 14.52 94.46 L 13.43 97.47 L 11.95 100.30 L 10.14 102.87 L 8.00 105.19 L 5.58 107.22 L 2.92 108.90 L 0.00 110.25 L 1.85 116.53 L 4.10 122.56 L 6.75 128.36 L 9.80 133.94 L 12.83 132.84 L 15.90 132.15 L 19.05 131.87 L 22.21 132.00 L 25.30 132.54 L 28.35 133.50 L 31.24 134.86 L 33.96 136.64 L 36.52 138.87 L 38.75 141.43 L 40.52 144.15 L 41.88 147.05 L 42.84 150.10 L 43.38 153.19 L 43.51 156.35 L 43.22 159.50 L 42.53 162.57 L 41.43 165.59 L 47.02 168.64 L 52.83 171.29 L 58.86 173.54 L 65.14 175.39 L 66.49 172.47 L 68.18 169.81 L 70.21 167.39 L 72.53 165.25 L 75.10 163.44 L 77.93 161.96 L 80.94 160.87 L 84.11 160.20 L 87.50 159.96 L 90.89 160.20 L 94.07 160.87 L 97.08 161.96 L 99.91 163.44 L 102.48 165.25 L 104.80 167.39 L 106.83 169.81 L 108.51 172.47 L 109.86 175.39 L 116.14 173.54 L 122.17 171.29 L 127.97 168.64 L 133.55 165.59 L 132.45 162.56 L 131.76 159.49 L 131.47 156.34 L 131.60 153.18 L 132.14 150.09 L 133.10 147.04 L 134.46 144.15 L 136.23 141.43 L 138.46 138.87 L 141.02 136.64 L 143.74 134.87 L 146.64 133.51 L 149.69 132.55 L 152.78 132.01 L 155.94 131.88 L 159.09 132.16 L 162.16 132.84 L 165.18 133.94 L 168.24 128.36 L 170.90 122.56 L 173.15 116.53 L 175.00 110.25 L 172.08 108.90 L 169.42 107.22 L 167.00 105.19 L 164.86 102.87 L 163.05 100.30 L 161.57 97.47 L 160.48 94.46 L 159.81 91.28 L 159.57 87.89 Z M 87.50 111.91 L 84.20 111.68 L 81.10 111.05 L 78.15 110.02 L 75.36 108.62 L 72.82 106.91 L 70.52 104.88 L 68.48 102.57 L 66.77 100.03 L 65.37 97.24 L 64.34 94.29 L 63.71 91.19 L 63.48 87.89 L 63.71 84.59 L 64.34 81.49 L 65.37 78.54 L 66.77 75.75 L 68.48 73.22 L 70.52 70.91 L 72.83 68.87 L 75.36 67.16 L 78.15 65.76 L 81.10 64.73 L 84.20 64.10 L 87.50 63.87 L 90.80 64.10 L 93.90 64.73 L 96.85 65.76 L 99.64 67.16 L 102.18 68.87 L 104.48 70.91 L 106.52 73.22 L 108.23 75.75 L 109.63 78.54 L 110.66 81.49 L 111.29 84.59 L 111.52 87.89 L 111.29 91.19 L 110.66 94.29 L 109.63 97.24 L 108.23 100.03 L 106.52 102.57 L 104.48 104.88 L 102.18 106.91 L 99.64 108.62 L 96.85 110.02 L 93.90 111.05 L 90.80 111.68 L 87.50 111.91 Z" fill="#9765ff" fill-rule="nonzero" group-id="1,2" id="形状" node-id="10" stroke="none" target-height="175" target-width="175" target-x="0" target-y="0.39013672"></path></g></g></svg>