<?xml version="1.0" standalone="no"?><!DOCTYPE svg PUBLIC "-//W3C//DTD SVG 1.1//EN" "http://www.w3.org/Graphics/SVG/1.1/DTD/svg11.dtd">
<svg t="1697978198427" class="icon" viewBox="0 0 1024 1024" version="1.1" xmlns="http://www.w3.org/2000/svg" p-id="7743"
     width="128" height="128"><path d="M896 0c70.4 0 128 57.6 128 128v768c0 70.4-57.6 128-128 128H128c-70.4 0-128-57.6-128-128V128C0 57.6 57.6 0 128 0h768zM454.4 793.6l115.2-102.4 89.6 160 64-38.4-83.2-160 147.2-51.2-326.4-192v384z m-64-268.8c-51.2-19.2-83.2-70.4-83.2-128C307.2 320 371.2 256 448 256s140.8 64 140.8 140.8v19.2l57.6 32c6.4-19.2 6.4-32 6.4-51.2C652.8 281.6 563.2 192 448 192 332.8 192 243.2 281.6 243.2 396.8c0 96 64 172.8 147.2 198.4V524.8z" fill="#F54848" p-id="7744"></path></svg>